<?xml version="1.0" encoding="iso-8859-1"?>
<!-- Generator: Adobe Illustrator 19.0.0, SVG Export Plug-In . SVG Version: 6.00 Build 0)  -->
<svg version="1.1" id="Capa_1" xmlns="http://www.w3.org/2000/svg" xmlns:xlink="http://www.w3.org/1999/xlink" x="0px" y="0px"
	 viewBox="0 0 512 512" style="enable-background:new 0 0 512 512;" xml:space="preserve">
<g>
	<g>
		<path d="M74.667,266.667H53.333V288H64v53.333h21.333v-64C85.333,271.442,80.558,266.667,74.667,266.667z"/>
	</g>
</g>
<g>
	<g>
		<path d="M160,362.667h-21.333V384h10.667v53.333h21.333v-64C170.667,367.442,165.891,362.667,160,362.667z"/>
	</g>
</g>
<g>
	<g>
		<path d="M106.667,362.667H64c-5.891,0-10.667,4.776-10.667,10.667v53.333c0,5.891,4.776,10.667,10.667,10.667h42.667
			c5.891,0,10.667-4.776,10.667-10.667v-53.333C117.333,367.442,112.558,362.667,106.667,362.667z M96,416H74.667v-32H96V416z"/>
	</g>
</g>
<g>
	<g>
		<path d="M160,266.667h-42.667c-5.891,0-10.667,4.776-10.667,10.667v53.333c0,5.891,4.776,10.667,10.667,10.667H160
			c5.891,0,10.667-4.776,10.667-10.667v-53.333C170.667,271.442,165.891,266.667,160,266.667z M149.333,320H128v-32h21.333V320z"/>
	</g>
</g>
<g>
	<g>
		<path d="M245.333,266.667h-42.667c-5.891,0-10.667,4.776-10.667,10.667v53.333c0,5.891,4.776,10.667,10.667,10.667h42.667
			c5.891,0,10.667-4.776,10.667-10.667v-53.333C256,271.442,251.224,266.667,245.333,266.667z M234.667,320h-21.333v-32h21.333V320z
			"/>
	</g>
</g>
<g>
	<g>
		<path d="M298.667,362.667H256c-5.891,0-10.667,4.776-10.667,10.667v53.333c0,5.891,4.776,10.667,10.667,10.667h42.667
			c5.891,0,10.667-4.776,10.667-10.667v-53.333C309.333,367.442,304.558,362.667,298.667,362.667z M288,416h-21.333v-32H288V416z"/>
	</g>
</g>
<g>
	<g>
		<path d="M160,170.667h-21.333V192h10.667v53.333h21.333v-64C170.667,175.442,165.891,170.667,160,170.667z"/>
	</g>
</g>
<g>
	<g>
		<path d="M298.667,170.667h-21.333V192H288v53.333h21.333v-64C309.333,175.442,304.558,170.667,298.667,170.667z"/>
	</g>
</g>
<g>
	<g>
		<path d="M298.667,266.667h-21.333V288H288v53.333h21.333v-64C309.333,271.442,304.558,266.667,298.667,266.667z"/>
	</g>
</g>
<g>
	<g>
		<path d="M213.333,362.667H192V384h10.667v53.333H224v-64C224,367.442,219.224,362.667,213.333,362.667z"/>
	</g>
</g>
<g>
	<g>
		<path d="M106.667,170.667H64c-5.891,0-10.667,4.776-10.667,10.667v53.333c0,5.891,4.776,10.667,10.667,10.667h42.667
			c5.891,0,10.667-4.776,10.667-10.667v-53.333C117.333,175.442,112.558,170.667,106.667,170.667z M96,224H74.667v-32H96V224z"/>
	</g>
</g>
<g>
	<g>
		<path d="M245.333,170.667h-42.667c-5.891,0-10.667,4.776-10.667,10.667v53.333c0,5.891,4.776,10.667,10.667,10.667h42.667
			c5.891,0,10.667-4.776,10.667-10.667v-53.333C256,175.442,251.224,170.667,245.333,170.667z M234.667,224h-21.333v-32h21.333V224z
			"/>
	</g>
</g>
<g>
	<g>
		<path d="M352,21.333H117.333c-2.829,0.001-5.541,1.125-7.541,3.125L3.125,131.125c-2,2-3.125,4.713-3.125,7.541V480
			c0,5.891,4.776,10.667,10.667,10.667H352c5.891,0,10.667-4.776,10.667-10.667V32C362.667,26.109,357.891,21.333,352,21.333z
			 M341.333,469.333h-320v-320h96c5.891,0,10.667-4.776,10.667-10.667v-64h-21.333V128H36.416l85.333-85.333h219.584V469.333z"/>
	</g>
</g>
<g>
	<g>
		<path d="M426.667,21.333H384v21.333h32v426.667h-32v21.333h42.667c5.891,0,10.667-4.776,10.667-10.667V32
			C437.333,26.109,432.558,21.333,426.667,21.333z"/>
	</g>
</g>
<g>
	<g>
		<path d="M501.333,21.333h-42.667v21.333h32v426.667h-32v21.333h42.667c5.891,0,10.667-4.776,10.667-10.667V32
			C512,26.109,507.224,21.333,501.333,21.333z"/>
	</g>
</g>
<g>
	<g>
		<path d="M277.333,85.333V64H160c-5.891,0-10.667,4.776-10.667,10.667v42.667c0,5.891,4.776,10.667,10.667,10.667h117.333v-21.333
			H170.667V85.333H277.333z"/>
	</g>
</g>
<g>
	<g>
		<rect x="298.667" y="64" width="21.333" height="21.333"/>
	</g>
</g>
<g>
	<g>
		<rect x="298.667" y="106.667" width="21.333" height="21.333"/>
	</g>
</g>
<g>
</g>
<g>
</g>
<g>
</g>
<g>
</g>
<g>
</g>
<g>
</g>
<g>
</g>
<g>
</g>
<g>
</g>
<g>
</g>
<g>
</g>
<g>
</g>
<g>
</g>
<g>
</g>
<g>
</g>
</svg>
