<?xml version="1.0"?>
<svg xmlns="http://www.w3.org/2000/svg" xmlns:xlink="http://www.w3.org/1999/xlink" xmlns:svgjs="http://svgjs.com/svgjs" version="1.1" width="512" height="512" x="0" y="0" viewBox="0 0 371 371" style="enable-background:new 0 0 512 512" xml:space="preserve" class=""><g transform="matrix(1,-2.449293598294706e-16,2.4492935982947054e-16,1.0000000000000002,-2.842170943040401e-14,8.526512829121202e-14)">
<g xmlns="http://www.w3.org/2000/svg">
	<g>
		<path d="M364.865,0H6.135C2.752,0,0,2.752,0,6.135v358.731C0,368.248,2.752,371,6.135,371h358.73c3.383,0,6.135-2.751,6.135-6.134    V6.135C371,2.752,368.248,0,364.865,0z M12.269,81.293h56.755v208.415H12.269V81.293z M358.731,358.732H12.269v-56.756h346.463    L358.731,358.732L358.731,358.732z M260.703,81.293h29.005v22.273L110.297,289.708H81.291v-22.327L260.703,81.293z     M81.291,249.773V81.293h60.513v105.693L81.291,249.773z M154.072,174.256V81.293h62.855v27.738L154.072,174.256z M229.195,96.301    V81.293h14.467L229.195,96.301z M229.193,184.022l60.515-62.795v168.481h-60.513V184.092L229.193,184.022z M216.928,196.745    v92.963h-62.854v-27.739L216.928,196.745z M141.804,274.699v15.009h-14.466L141.804,274.699z M358.731,289.708h-56.756V81.293    h56.756V289.708z M358.731,69.023H12.269V12.27h346.463L358.731,69.023L358.731,69.023z" fill="#00d791" data-original="#000000" style="" class=""/>
		<path d="M51.682,51.728c6.1,0,11.063-4.963,11.063-11.064S57.782,29.6,51.682,29.6c-6.102,0-11.066,4.963-11.066,11.064    S45.58,51.728,51.682,51.728z" fill="#00d791" data-original="#000000" style="" class=""/>
		<path d="M319.318,51.728c6.102,0,11.065-4.963,11.065-11.064S325.42,29.6,319.318,29.6c-6.101,0-11.063,4.963-11.063,11.064    S313.219,51.728,319.318,51.728z" fill="#00d791" data-original="#000000" style="" class=""/>
		<path d="M51.682,341.401c6.1,0,11.063-4.964,11.063-11.063c0-6.102-4.963-11.064-11.063-11.064    c-6.102,0-11.066,4.963-11.066,11.064C40.615,336.438,45.58,341.401,51.682,341.401z" fill="#00d791" data-original="#000000" style="" class=""/>
		<path d="M319.318,341.401c6.102,0,11.065-4.964,11.065-11.063c0-6.102-4.965-11.064-11.065-11.064s-11.063,4.963-11.063,11.064    C308.256,336.438,313.219,341.401,319.318,341.401z" fill="#00d791" data-original="#000000" style="" class=""/>
	</g>
</g>
<g xmlns="http://www.w3.org/2000/svg">
</g>
<g xmlns="http://www.w3.org/2000/svg">
</g>
<g xmlns="http://www.w3.org/2000/svg">
</g>
<g xmlns="http://www.w3.org/2000/svg">
</g>
<g xmlns="http://www.w3.org/2000/svg">
</g>
<g xmlns="http://www.w3.org/2000/svg">
</g>
<g xmlns="http://www.w3.org/2000/svg">
</g>
<g xmlns="http://www.w3.org/2000/svg">
</g>
<g xmlns="http://www.w3.org/2000/svg">
</g>
<g xmlns="http://www.w3.org/2000/svg">
</g>
<g xmlns="http://www.w3.org/2000/svg">
</g>
<g xmlns="http://www.w3.org/2000/svg">
</g>
<g xmlns="http://www.w3.org/2000/svg">
</g>
<g xmlns="http://www.w3.org/2000/svg">
</g>
<g xmlns="http://www.w3.org/2000/svg">
</g>
</g></svg>
